# xmcd
#
# Track frame offsets: 
#        150
#        16350
#        36433
#        54894
#        72690
#        89864
#        106665
#        123418
#        145620
#        161527
#        174128
#        184263
#
# Disc length: 2716 seconds
#
# Revision: 0
# Processed by: cddbd v1.5.2PL0 Copyright (c) Steve Scherf et al.
# Submitted via: ExactAudioCopyFreeDBPlugin 1.0
#
DISCID=a00a9a0c
DTITLE=Casey don Yeager - Strong and Sturdy
DYEAR=2018
DGENRE=
TTITLE0=Dallas Monday Morning
TTITLE1=Jesus Would Have Loved El Paso
TTITLE2=Little Bird
TTITLE3=This Old House
TTITLE4=Old Hat
TTITLE5=Winners and Fools
TTITLE6=Blue Train
TTITLE7=Thanks For Leavin'
TTITLE8=Under The Ashes
TTITLE9=It Ain't Nothing'
TTITLE10=Honest Work
TTITLE11=Day Hand's Home
EXTD=
EXTT0=
EXTT1=
EXTT2=
EXTT3=
EXTT4=
EXTT5=
EXTT6=
EXTT7=
EXTT8=
EXTT9=
EXTT10=
EXTT11=
PLAYORDER=
